<svg width="226" height="226" viewBox="0 0 226 226" fill="none" xmlns="http://www.w3.org/2000/svg">
<path d="M104.445 0.460788C103.92 0.516061 102.234 0.709518 100.714 0.847702C79.1025 3.11391 57.8222 12.2617 40.4663 26.7986C37.2605 29.4517 29.9644 36.7478 27.3112 39.9537C12.9401 57.1161 4.53858 76.3788 1.44327 99.1791C0.75235 104.237 0.75235 121.316 1.44327 126.374C4.53858 149.174 12.9401 168.437 27.3112 185.599C29.9644 188.805 37.2605 196.101 40.4663 198.754C57.6287 213.125 76.8915 221.527 99.6918 224.622C104.749 225.313 121.829 225.313 126.886 224.622C149.687 221.527 168.949 213.125 186.112 198.754C189.318 196.101 196.614 188.805 199.267 185.599C213.638 168.437 222.04 149.174 225.135 126.374C225.826 121.316 225.826 104.237 225.135 99.1791C222.04 76.3788 213.638 57.1161 199.267 39.9537C196.614 36.7478 189.318 29.4517 186.112 26.7986C169.005 12.4828 149.548 3.97065 127.052 0.958249C124.62 0.626608 121.083 0.488425 114.533 0.433151C109.53 0.377878 104.97 0.405514 104.445 0.460788ZM105.827 12.3998C105.827 15.6333 106.048 22.6531 106.352 29.3135C106.518 32.5747 106.712 37.2453 106.794 39.6773C107.098 48.2999 108.01 70.9344 108.149 72.9519L108.287 74.9694L107.043 74.8312C106.352 74.7759 105.717 74.6101 105.606 74.5272C105.523 74.4166 105.33 72.5097 105.219 70.2711C104.722 60.4325 103.091 22.2662 102.925 16.6835L102.759 10.5482L103.533 10.4376C103.948 10.3824 104.639 10.2995 105.081 10.2718L105.827 10.2442V12.3998ZM132.275 11.7366C132.303 11.7642 132.386 20.1105 132.469 30.2808C132.58 40.4788 132.718 49.6265 132.801 50.6214C132.884 51.644 132.856 52.5284 132.718 52.5836C132.607 52.6665 131.916 52.6665 131.225 52.5836L129.954 52.4731L129.761 44.4308C129.65 39.9813 129.512 35.062 129.457 33.459C129.235 28.5673 129.042 11.9577 129.208 11.5431C129.318 11.2391 129.622 11.2115 130.783 11.4049C131.585 11.5707 132.248 11.7089 132.275 11.7366ZM68.3518 20.9949C68.5176 21.2436 69.8165 36.4714 71.4194 56.3975C71.9445 63.1685 72.4696 69.3591 72.5525 70.1329C72.6907 71.5424 72.6631 71.5977 71.7787 72.1504C71.2813 72.4544 70.7838 72.7032 70.6733 72.7032C70.5903 72.7032 70.4245 71.9846 70.3416 71.1002C69.9547 67.5075 68.4623 50.1516 67.4121 37.6045C66.8041 30.2255 66.2514 23.6204 66.1685 22.9018C66.0303 21.6858 66.0579 21.5752 66.7765 21.1883C67.6608 20.7185 68.1583 20.6356 68.3518 20.9949ZM144.436 26.5498C145.209 26.8262 145.292 26.9644 145.458 28.5397C145.735 31.3034 145.652 44.5137 145.348 44.5137C144.546 44.5137 142.888 43.5741 142.75 43.049C142.667 42.7173 142.584 38.7929 142.584 34.3434C142.584 25.3615 142.473 25.8866 144.436 26.5498ZM93.3906 27.8488C93.3906 28.595 93.5841 32.7128 93.8052 37.0518C94.0263 41.3908 94.275 46.8905 94.3856 49.2672C94.579 54.076 94.6343 53.9102 92.7826 54.0207C91.8706 54.0484 91.8706 54.0484 91.8153 52.6665C91.7601 51.8927 91.6219 49.4883 91.4561 47.2774C91.3179 45.0664 90.9862 40.2853 90.7651 36.6372C90.5441 32.9892 90.2677 29.3688 90.1848 28.595C90.019 27.2131 90.0466 27.1579 90.7928 26.8815C91.235 26.7157 92.0088 26.5775 92.5063 26.5775C93.3906 26.5498 93.3906 26.5498 93.3906 27.8488ZM170.055 31.635L170.995 32.0219L171.188 35.7252C171.271 37.7427 171.326 42.1093 171.271 45.3981L171.188 51.4229L170.027 50.8425L168.867 50.2898L168.784 41.1144C168.728 36.0569 168.756 31.7732 168.811 31.5797C168.922 31.1652 168.922 31.1652 170.055 31.635ZM119.59 35.2554C119.756 35.4212 120.143 48.825 120.171 55.6237L120.198 59.7139L118.899 59.5205C118.153 59.4375 117.545 59.3546 117.517 59.327C117.435 59.2717 116.605 38.7929 116.605 36.8031V34.758L118.015 34.9238C118.816 35.0343 119.507 35.1725 119.59 35.2554ZM183.238 37.2176C183.569 37.6045 183.625 43.657 183.707 77.0421C183.79 115.374 183.79 116.369 183.293 116.369C182.989 116.369 182.574 116.203 182.326 116.01C181.911 115.706 181.856 112.362 181.718 79.6123C181.607 59.7692 181.469 41.75 181.386 39.5667L181.22 35.5871L182.022 36.1674C182.491 36.4991 183.017 36.9689 183.238 37.2176ZM158.447 42.8831C158.586 42.9937 158.724 44.569 158.751 46.3654C158.89 52.4731 158.917 89.9208 158.779 90.0314C158.724 90.0867 158.226 89.9485 157.674 89.7274L156.679 89.3128V65.794V42.3028L157.453 42.4686C157.867 42.5791 158.309 42.745 158.447 42.8831ZM82.1701 44.4308C82.253 45.177 82.3912 46.8628 82.4741 48.2447C82.557 49.5989 82.7505 52.6942 82.9163 55.0986C83.248 59.9626 83.1927 60.2666 81.6174 60.2666C80.7883 60.2666 80.6777 60.1837 80.5672 59.3546C80.2908 57.7241 79.3235 44.1268 79.4617 43.9057C79.5999 43.7122 81.037 43.2148 81.7003 43.1595C81.8661 43.1319 82.0872 43.7122 82.1701 44.4308ZM36.459 51.4782C36.763 54.4077 37.371 60.543 37.8132 65.1031C38.283 69.6631 38.6699 73.5323 38.6699 73.6981C38.6699 74.0297 36.5419 75.0799 36.3208 74.8588C36.1826 74.7206 33.419 50.2622 33.419 49.1567C33.419 48.4934 35.547 45.7021 35.8233 46.0061C35.9063 46.0614 36.1826 48.521 36.459 51.4782ZM144.823 54.38L145.624 54.8498L145.652 60.8194C145.679 64.0805 145.735 67.7286 145.735 68.9169C145.79 71.4042 145.486 71.8188 143.993 71.2937L143.137 70.9897V68.6129C143.137 67.2864 143.054 63.4449 142.943 60.0455L142.777 53.9102H143.413C143.745 53.9102 144.38 54.1313 144.823 54.38ZM48.5915 65.1031C49.089 70.4093 49.8904 79.3636 50.4155 85.0015L51.3552 95.2271L50.2774 96.3049L49.2272 97.3828L49.0337 95.1995C48.9232 93.9834 48.3704 88.3455 47.79 82.6524C47.2097 76.9592 46.3806 68.6958 45.966 64.3016L45.1922 56.3422L46.27 55.3473C47.2373 54.4353 47.3479 54.4077 47.5413 54.9051C47.6519 55.1815 48.1217 59.7692 48.5915 65.1031ZM27.8916 68.4471C28.4996 73.8915 30.1025 88.3732 31.4844 100.616C32.8662 112.859 34.1651 124.66 34.4139 126.871C34.635 129.082 35.0219 132.426 35.243 134.333C35.6299 137.567 35.6299 137.788 35.1877 138.119C34.5244 138.617 34.2481 138.561 34.2481 137.981C34.2481 137.732 33.9993 135.632 33.6953 133.366C33.1979 129.58 32.3688 123.168 30.5171 108.769C30.1302 105.867 29.384 100.091 28.8589 95.918C28.3062 91.7449 27.5047 85.5266 27.0625 82.0996C26.6203 78.6727 25.8741 72.8137 25.4043 69.0275C24.9068 65.2689 24.6028 61.9248 24.6857 61.5656C24.8792 60.8194 26.5098 58.2215 26.6756 58.3873C26.7309 58.4703 27.2836 62.975 27.8916 68.4471ZM19.4348 80.3585C19.8493 83.6749 20.6232 89.7274 21.1482 93.8453C21.6733 97.9355 22.3366 103.048 22.6406 105.176L23.1657 109.045L22.5854 109.543C22.2537 109.819 21.9221 109.93 21.8115 109.819C21.701 109.709 21.4799 108.603 21.3141 107.387C21.1482 106.171 20.1257 99.0686 19.0202 91.6343L17.058 78.0923L17.6937 76.213C18.0253 75.1905 18.3846 74.3614 18.4675 74.3614C18.578 74.3614 18.9926 77.0698 19.4348 80.3585ZM171.16 76.7381C171.547 77.125 171.603 78.8385 171.603 91.5238V105.867H170.829C169.143 105.867 169.171 106.282 169.06 90.5841L168.977 76.2959H169.861C170.331 76.2959 170.939 76.4894 171.16 76.7381ZM110.664 81.6851C116.909 82.6247 122.354 84.3659 127.743 87.1295C131.225 88.9259 132.884 90.1696 136.753 93.8729C142.501 99.3726 146.039 104.181 149.355 110.98C154.191 120.874 156.071 129.635 158.447 153.126C159.525 163.656 160.935 182.753 161.239 190.574C161.322 192.84 161.515 196.571 161.681 198.865C161.985 203.729 162.344 203.066 158.061 205.138C152.119 208.013 146.398 210.002 138.853 211.854C129.622 214.12 123.653 214.839 114.533 214.866L107.9 214.894L107.955 211.716C107.955 209.975 108.121 205.912 108.287 202.734C109.116 187.34 108.95 167.912 107.872 157.133C107.264 150.943 106.076 143.426 105.413 141.767C105.274 141.408 105.91 141.104 108.646 140.164C113.648 138.423 117.987 136.24 118.651 135.162C119.839 133.117 117.711 130.188 115.003 130.188C114.533 130.188 113.123 130.685 111.824 131.265C105.634 134.112 93.2248 137.456 86.0669 138.202C81.1199 138.727 73.4369 138.423 68.103 137.456C65.2012 136.931 60.0055 134.969 55.6665 132.73C50.6643 130.132 47.5966 126.678 46.6846 122.587C46.1871 120.376 46.3253 115.955 46.9609 113.467C47.6519 110.731 49.5864 106.752 51.3552 104.43C59.2316 94.0663 75.482 85.0844 92.147 81.9338C97.4532 80.9389 104.97 80.8284 110.664 81.6851ZM195.923 82.5418C196.918 82.9564 197.028 83.0669 197.028 84.0066C197.084 91.5514 196.918 108.797 196.78 109.515C196.752 109.764 195.315 109.792 194.707 109.571C194.32 109.432 194.265 107.94 194.265 95.7522C194.265 87.019 194.375 82.0996 194.541 82.0996C194.679 82.0996 195.315 82.2931 195.923 82.5418ZM208 97.7144L208.995 98.1289L208.802 121.012C208.58 150.169 208.553 151.026 207.503 153.541C205.789 157.658 205.872 158.488 206.038 140.413C206.093 131.376 206.231 122.228 206.287 120.1C206.342 117.972 206.397 111.975 206.425 106.752C206.425 100.45 206.508 97.2998 206.701 97.2998C206.867 97.2998 207.447 97.4933 208 97.7144ZM41.7929 104.596C41.9587 106.835 41.9034 107.056 41.102 108.824L40.2176 110.704L39.8859 107.94C39.3608 103.518 39.3608 103.325 40.411 102.661C40.8809 102.33 41.3783 102.109 41.4612 102.164C41.5441 102.219 41.71 103.325 41.7929 104.596ZM24.7134 121.261C24.9621 123.527 26.8967 138.561 27.8916 145.94C29.384 157.354 29.4945 158.985 28.8313 158.294C28.7483 158.211 28.1127 154.37 27.4494 149.754C23.1381 119.962 23.1657 120.155 23.525 119.934C24.2712 119.437 24.5199 119.713 24.7134 121.261ZM44.6118 133.918C44.7776 134.609 45.5791 142.099 45.5791 143.011C45.5791 143.785 44.5842 144.503 44.142 144.061C44.0038 143.923 43.6445 141.574 43.3682 138.865C43.0642 136.129 42.7602 133.283 42.6773 132.537L42.5114 131.155L43.4787 132.26C44.0315 132.868 44.5289 133.614 44.6118 133.918ZM66.9147 144.338C67.2187 144.614 67.4121 145.719 67.6608 148.704C68.0754 154.093 68.1307 153.679 66.9976 153.679C65.8368 153.679 65.8645 153.762 65.4775 148.898C65.0906 143.951 65.0906 144.006 65.8368 144.006C66.1961 144.006 66.6659 144.172 66.9147 144.338ZM88.8029 144.752C88.8582 145.028 88.9964 146.687 89.1069 148.428C89.1899 150.169 89.4386 154.093 89.6597 157.133C90.4335 168.299 90.4611 169.708 89.9913 169.708C89.4662 169.708 89.4109 169.293 88.8029 161.417C88.5818 158.156 88.1673 153.015 87.8909 150.003C87.6422 146.991 87.4764 144.476 87.5593 144.42C87.8633 144.089 88.6648 144.338 88.8029 144.752ZM36.8459 150.058C37.0117 150.307 38.0619 159.151 39.3608 171.228C39.7478 174.876 40.1347 178.386 40.2176 179.049L40.3558 180.238L39.6649 179.795C39.1398 179.436 38.9463 179.077 38.9463 178.441C38.9463 176.7 37.7579 165.231 36.8459 158.211C36.3208 154.231 35.9063 150.722 35.9063 150.39C35.9063 149.81 36.5695 149.589 36.8459 150.058ZM196.337 161.61L196.144 173.163L195.453 174.185C193.878 176.507 193.961 176.949 194.044 164.015L194.099 152.159L195.121 151.109C195.674 150.556 196.227 150.086 196.337 150.086C196.42 150.086 196.42 155.282 196.337 161.61ZM170.773 179.934C170.912 195.991 170.884 197.234 170.442 197.732C170.165 198.036 169.917 198.229 169.834 198.146C169.64 197.925 169.364 162.909 169.585 162.716C169.696 162.605 169.972 162.55 170.221 162.578C170.58 162.661 170.663 164.623 170.773 179.934ZM80.5119 168.934C80.7054 170.648 81.3963 178.856 81.6727 182.725C81.8385 185.323 81.8385 185.406 81.2305 185.599C80.8988 185.71 80.5119 185.682 80.4014 185.544C80.2079 185.35 79.5999 179.215 78.8537 169.763L78.6603 167.497H79.517C80.3185 167.497 80.3737 167.552 80.5119 168.934ZM58.7895 178.607C58.9829 178.801 59.1211 179.491 59.1211 180.182C59.1211 180.901 59.4527 184.632 59.812 188.501C60.8622 199.086 60.9451 200.523 60.4753 200.247C59.7567 199.832 59.1211 199.196 59.2593 199.031C59.3146 198.92 59.204 197.538 58.9829 195.963C58.7895 194.36 58.5407 191.762 58.4302 190.159C58.3196 188.556 58.0709 185.627 57.8498 183.665C57.3247 178.828 57.3524 178.275 57.9604 178.275C58.2367 178.275 58.596 178.414 58.7895 178.607ZM71.8616 197.207C71.9445 197.815 72.1104 200.081 72.2209 202.236C72.4144 206.382 72.3315 206.686 71.1983 205.829C70.8667 205.58 70.6456 204.53 70.314 201.38C69.7336 195.687 69.706 195.908 70.7838 196.018C71.5853 196.101 71.6958 196.212 71.8616 197.207Z" fill="white"/>
<path d="M61.9953 94.9231C59.1211 96.1667 58.9 100.064 61.6084 101.445C63.5706 102.44 65.5605 101.97 66.583 100.257C68.5176 97.1064 65.367 93.4583 61.9953 94.9231Z" fill="white"/>
<path d="M80.733 97.5762C78.0799 99.2067 78.0799 103.131 80.733 104.762C83.3585 106.337 86.7578 104.264 86.7578 101.114C86.7578 98.0736 83.2756 96.0285 80.733 97.5762Z" fill="white"/>
</svg>
