<svg width="155" height="165" viewBox="0 0 155 165" fill="none" xmlns="http://www.w3.org/2000/svg">
<path d="M136.3 164.54L106.95 135.34L106.53 135.41V135.11L44.12 73.37L59.53 58.52L50.47 6.59L7.58 59.79C0.300001 67.15 -1.1 79.18 4.18 88L30.98 132.49C35.08 139.31 41.52 143.69 50.51 143.37C69.54 142.7 77.91 142.7 77.91 142.7L136.28 164.51L136.3 164.53V164.54Z" fill="#18B6F6"/>
<path d="M150.8 82.72C155.03 74 156.54 66.37 152.37 58.72L146.44 47.8L143.36 42.2L142.16 40L142.06 40.14L125.91 12.14C123.914 8.65966 121.026 5.77431 117.544 3.78109C114.062 1.78788 110.112 0.758853 106.1 0.8L91.94 1.2L49.69 1.31C45.7674 1.33821 41.9193 2.38423 38.5223 4.3457C35.1252 6.30717 32.2955 9.1169 30.31 12.5L4.64001 63.48L50.58 6.33L110.85 72.6L100.05 83.53L106.5 135.37L106.59 135.27V135.41H106.49L106.63 135.54L111.65 140.44L135.95 164.18C136.98 165.16 138.63 163.98 137.95 162.76L122.93 133.19" fill="#AC7EF4"/>
<path d="M110.99 72.43L50.56 6.5L59.15 58.14L43.77 73.06L106.39 135.29L100.75 83.63L110.99 72.46V72.44V72.43Z" fill="white"/>
</svg>
