<svg width="84" height="84" viewBox="0 0 84 84" fill="none" xmlns="http://www.w3.org/2000/svg">
<g clip-path="url(#clip0_1_20)">
<path d="M73.09 27.74C72.93 27.57 72.76 27.4 72.59 27.24C72.42 27.08 72.26 26.9 72.09 26.74C71.92 26.58 71.76 26.4 71.59 26.24C71.42 26.08 71.26 25.9 71.09 25.74C70.92 25.58 70.76 25.4 70.59 25.24C70.42 25.08 70.26 24.9 70.09 24.74C69.92 24.58 69.76 24.4 69.59 24.24C74.5502 29.1147 77.3917 35.7463 77.5 42.7C77.5 59.27 60.68 72.75 40 72.75C28.42 72.75 18.06 68.52 11.17 61.89L11.67 62.39L12.17 62.89L12.67 63.39L13.17 63.89L13.67 64.39L14.17 64.89L14.67 65.39C21.55 72.3 32.14 76.75 44 76.75C64.68 76.75 81.5 63.27 81.5 46.75C81.5 39.69 78.46 33 73.09 27.74Z" fill="black"/>
<path d="M75 42.7C75 57.91 59.33 70.24 40 70.24C20.67 70.24 5 57.91 5 42.7C5 33.27 11 24.94 20.22 20C29.44 15.06 35.18 10 40 10C44.82 10 48.94 14.13 59.78 20C69 24.94 75 33.27 75 42.7Z" fill="#FBF0DF"/>
<path d="M75 42.7C74.9951 40.7461 74.726 38.8018 74.2 36.92C71.47 70.22 30.85 71.82 14.88 61.86C22.059 67.4244 30.9181 70.3797 40 70.24C59.3 70.24 75 57.89 75 42.7Z" fill="#F6DECE"/>
<path d="M26.53 18.17C31 15.49 36.94 10.46 42.78 10.45C41.8816 10.1596 40.9442 10.0079 40 10C37.58 10 35 11.25 31.75 13.13C30.62 13.79 29.45 14.52 28.21 15.28C25.88 16.72 23.21 18.35 20.21 19.98C10.69 25.13 5 33.62 5 42.7V43.89C11.06 22.48 22.07 20.85 26.53 18.17Z" fill="#FFFEFC"/>
<path fill-rule="evenodd" clip-rule="evenodd" d="M37.12 12.53C37.134 14.8912 36.6382 17.2277 35.6666 19.3797C34.695 21.5318 33.2703 23.4489 31.49 25C31.21 25.25 31.43 25.73 31.79 25.59C35.16 24.28 39.71 20.36 37.79 12.45C37.71 12 37.12 12.12 37.12 12.53ZM39.39 12.53C40.6136 14.5264 41.391 16.7638 41.6689 19.0888C41.9468 21.4138 41.7186 23.7714 41 26C40.88 26.35 41.31 26.65 41.55 26.36C43.74 23.56 45.65 18 39.93 12C39.64 11.74 39.19 12.14 39.39 12.49V12.53ZM42.15 12.36C44.0661 13.7166 45.6691 15.4682 46.8508 17.4969C48.0324 19.5256 48.7653 21.784 49 24.12C48.9899 24.2042 49.0125 24.289 49.0633 24.3569C49.114 24.4249 49.189 24.4706 49.2726 24.4848C49.3562 24.4989 49.442 24.4804 49.5123 24.4329C49.5825 24.3855 49.6319 24.3128 49.65 24.23C50.57 20.74 50.05 14.79 42.48 11.7C42.08 11.54 41.82 12.08 42.15 12.32V12.36ZM23.69 22.76C25.9693 22.0791 28.0796 20.9257 29.8835 19.3751C31.6874 17.8244 33.1446 15.9112 34.16 13.76C34.34 13.4 34.91 13.54 34.82 13.94C33.09 21.94 27.3 23.61 23.7 23.39C23.32 23.4 23.33 22.87 23.69 22.76Z" fill="#CCBEA7"/>
<path d="M40 72.75C19.32 72.75 2.5 59.27 2.5 42.7C2.5 32.7 8.68 23.37 19.03 17.78C22.03 16.18 24.6 14.57 26.89 13.16C28.15 12.38 29.34 11.65 30.49 10.97C34 8.89 37 7.5 40 7.5C43 7.5 45.62 8.7 48.9 10.64C49.9 11.21 50.9 11.83 51.97 12.51C54.46 14.05 57.27 15.79 60.97 17.78C71.32 23.37 77.5 32.69 77.5 42.7C77.5 59.27 60.68 72.75 40 72.75ZM40 10C37.58 10 35 11.25 31.75 13.13C30.62 13.79 29.45 14.52 28.21 15.28C25.88 16.72 23.21 18.35 20.21 19.98C10.69 25.13 5 33.62 5 42.7C5 57.89 20.7 70.25 40 70.25C59.3 70.25 75 57.89 75 42.7C75 33.62 69.31 25.13 59.78 20C56 18 53.05 16.12 50.66 14.64C49.57 13.97 48.57 13.35 47.66 12.8C44.63 11 42.42 10 40 10Z" fill="black"/>
<path d="M47.05 50C46.6008 51.8399 45.5782 53.4894 44.13 54.71C43.0428 55.7639 41.6353 56.4255 40.13 56.59C38.5795 56.4515 37.1226 55.7884 36 54.71C34.5666 53.4836 33.5584 51.8348 33.12 50C33.1055 49.8911 33.1161 49.7803 33.151 49.6761C33.1859 49.5719 33.2442 49.477 33.3214 49.3989C33.3986 49.3207 33.4927 49.2612 33.5965 49.225C33.7002 49.1888 33.8109 49.1768 33.92 49.19H46.26C46.3683 49.1785 46.4778 49.1917 46.5803 49.2286C46.6828 49.2656 46.7755 49.3253 46.8516 49.4032C46.9277 49.4812 46.985 49.5755 47.0194 49.6788C47.0538 49.7822 47.0642 49.892 47.05 50Z" fill="#B71422"/>
<path d="M36 54.79C37.1203 55.869 38.572 56.5384 40.12 56.69C41.6645 56.5362 43.1123 55.867 44.23 54.79C44.5875 54.4567 44.9217 54.0992 45.23 53.72C44.614 53.0211 43.8615 52.4557 43.0188 52.0584C42.1761 51.6612 41.2611 51.4405 40.33 51.41C39.3337 51.4336 38.3581 51.6989 37.4871 52.1832C36.6161 52.6675 35.8758 53.3562 35.33 54.19C35.56 54.4 35.76 54.6 36 54.79Z" fill="#FF6164"/>
<path d="M36.16 54C36.6558 53.3592 37.2904 52.8391 38.0161 52.4788C38.7418 52.1185 39.5398 51.9275 40.35 51.92C41.8476 51.9642 43.2744 52.567 44.35 53.61C44.58 53.36 44.8 53.1 45.01 52.84C43.7378 51.6284 42.0566 50.9395 40.3 50.91C39.3613 50.9181 38.436 51.1339 37.5905 51.5419C36.745 51.95 36.0004 52.5401 35.41 53.27C35.6464 53.5269 35.8968 53.7706 36.16 54Z" fill="black"/>
<path d="M40.09 57.19C38.4236 57.044 36.8555 56.3392 35.64 55.19C34.0921 53.8808 33.0025 52.1115 32.53 50.14C32.4961 49.9645 32.5019 49.7836 32.5469 49.6106C32.5918 49.4376 32.6749 49.2768 32.79 49.14C32.927 48.9745 33.1001 48.8425 33.2959 48.7541C33.4918 48.6658 33.7052 48.6233 33.92 48.63H46.26C46.4744 48.6255 46.6872 48.6689 46.8827 48.7572C47.0782 48.8454 47.2515 48.9762 47.39 49.14C47.504 49.2773 47.5856 49.4384 47.6289 49.6115C47.6722 49.7846 47.676 49.9652 47.64 50.14C47.1675 52.1115 46.0779 53.8808 44.53 55.19C43.3171 56.3372 41.7529 57.0418 40.09 57.19ZM33.92 49.79C33.76 49.79 33.72 49.86 33.71 49.88C34.1327 51.5897 35.0889 53.1203 36.44 54.25C37.428 55.2233 38.7125 55.8392 40.09 56C41.464 55.841 42.747 55.2329 43.74 54.27C45.0869 53.1384 46.0393 51.6081 46.46 49.9C46.4382 49.868 46.408 49.8427 46.3727 49.8268C46.3374 49.8109 46.2984 49.8051 46.26 49.81L33.92 49.79Z" fill="black"/>
<path d="M55.22 50.62C58.4509 50.62 61.07 49.0799 61.07 47.18C61.07 45.2801 58.4509 43.74 55.22 43.74C51.9891 43.74 49.37 45.2801 49.37 47.18C49.37 49.0799 51.9891 50.62 55.22 50.62Z" fill="#FEBBD0"/>
<path d="M24.95 50.62C28.1809 50.62 30.8 49.0799 30.8 47.18C30.8 45.2801 28.1809 43.74 24.95 43.74C21.7191 43.74 19.1 45.2801 19.1 47.18C19.1 49.0799 21.7191 50.62 24.95 50.62Z" fill="#FEBBD0"/>
<path fill-rule="evenodd" clip-rule="evenodd" d="M27.7 45.8C28.7902 45.802 29.8565 45.4805 30.7639 44.8763C31.6713 44.272 32.3791 43.4122 32.7977 42.4055C33.2163 41.3989 33.3268 40.2907 33.1153 39.2212C32.9039 38.1517 32.3799 37.169 31.6097 36.3974C30.8395 35.6258 29.8577 35.1 28.7886 34.8866C27.7195 34.6732 26.6111 34.7817 25.6037 35.1985C24.5963 35.6152 23.7352 36.3214 23.1293 37.2278C22.5234 38.1341 22.2 39.1998 22.2 40.29C22.2 41.7496 22.7791 43.1496 23.8103 44.1826C24.8415 45.2157 26.2404 45.7974 27.7 45.8ZM52.47 45.8C53.5614 45.8079 54.6307 45.4915 55.542 44.8909C56.4534 44.2903 57.1658 43.4325 57.589 42.4264C58.0122 41.4204 58.127 40.3112 57.919 39.2398C57.7109 38.1683 57.1893 37.1828 56.4203 36.4082C55.6514 35.6336 54.6697 35.1048 53.5997 34.889C52.5298 34.6731 51.4199 34.7799 50.4108 35.1957C49.4016 35.6115 48.5387 36.3177 47.9315 37.2247C47.3242 38.1317 47 39.1985 47 40.29C46.9973 41.7452 47.5715 43.1422 48.5968 44.175C49.622 45.2077 51.0148 45.7921 52.47 45.8Z" fill="black"/>
<path fill-rule="evenodd" clip-rule="evenodd" d="M26 40.64C26.4098 40.642 26.811 40.5223 27.1527 40.296C27.4945 40.0698 27.7613 39.7472 27.9195 39.3691C28.0778 38.991 28.1202 38.5745 28.0414 38.1723C27.9627 37.7701 27.7663 37.4004 27.4773 37.1099C27.1882 36.8194 26.8193 36.6212 26.4175 36.5405C26.0157 36.4599 25.599 36.5003 25.2202 36.6566C24.8413 36.813 24.5175 37.0783 24.2896 37.4189C24.0617 37.7596 23.94 38.1602 23.94 38.57C23.94 39.1173 24.1567 39.6423 24.5428 40.0302C24.9288 40.4181 25.4527 40.6374 26 40.64ZM50.77 40.64C51.1798 40.642 51.581 40.5223 51.9227 40.296C52.2645 40.0698 52.5313 39.7472 52.6895 39.3691C52.8478 38.991 52.8902 38.5745 52.8114 38.1723C52.7327 37.7701 52.5363 37.4004 52.2473 37.1099C51.9582 36.8194 51.5893 36.6212 51.1875 36.5405C50.7857 36.4599 50.369 36.5003 49.9902 36.6566C49.6113 36.813 49.2875 37.0783 49.0596 37.4189C48.8317 37.7596 48.71 38.1602 48.71 38.57C48.7099 39.1138 48.9239 39.6359 49.3056 40.0232C49.6874 40.4106 50.2062 40.6321 50.75 40.64H50.77Z" fill="white"/>
</g>
<defs>
<clipPath id="clip0_1_20">
<rect width="80" height="70" fill="white" transform="translate(2 7)"/>
</clipPath>
</defs>
</svg>
