<svg width="198" height="197" viewBox="0 0 198 197" fill="none" xmlns="http://www.w3.org/2000/svg">
<path d="M83.1226 71.5519H107.406C122.349 71.5519 122.349 86.4198 107.406 86.4198H83.1226V71.5519ZM25.2169 140.316H99.9339V119.873H83.1226V105.005H101.802C122.349 105.005 111.141 140.316 127.953 140.316H174.651V105.005H163.443V108.722C163.443 123.59 146.632 121.731 144.764 112.439C142.896 103.146 135.424 95.7123 133.557 95.7123C161.575 80.8444 144.764 51.1085 122.349 51.1085H34.5565V71.5519H53.2358V119.873H25.2169V140.316Z" fill="white" stroke="white" stroke-linejoin="round"/>
<path d="M99 178.415C143.36 178.415 179.321 142.636 179.321 98.5C179.321 54.3641 143.36 18.5849 99 18.5849C54.64 18.5849 18.6792 54.3641 18.6792 98.5C18.6792 142.636 54.64 178.415 99 178.415Z" stroke="white" stroke-width="9"/>
<path d="M184.925 104.076L194.264 98.5L184.925 92.9246V104.076Z" fill="white" stroke="white" stroke-width="3" stroke-linejoin="round"/>
<path d="M182.18 120.647L192.434 116.991L184.367 109.71L182.18 120.647Z" fill="white" stroke="white" stroke-width="3" stroke-linejoin="round"/>
<path d="M176.239 136.367L187.013 134.772L180.528 126.065L176.239 136.367Z" fill="white" stroke="white" stroke-width="3" stroke-linejoin="round"/>
<path d="M167.33 150.632L178.209 151.159L173.557 141.36L167.33 150.632Z" fill="white" stroke="white" stroke-width="3" stroke-linejoin="round"/>
<path d="M155.795 162.893L166.362 165.522L163.72 155.009L155.795 162.893Z" fill="white" stroke="white" stroke-width="3" stroke-linejoin="round"/>
<path d="M142.078 172.68L151.926 177.309L151.396 166.485L142.078 172.68Z" fill="white" stroke="white" stroke-width="3" stroke-linejoin="round"/>
<path d="M126.705 179.617L135.456 186.068L137.059 175.349L126.705 179.617Z" fill="white" stroke="white" stroke-width="3" stroke-linejoin="round"/>
<path d="M110.267 183.436L117.585 191.462L121.259 181.26L110.267 183.436Z" fill="white" stroke="white" stroke-width="3" stroke-linejoin="round"/>
<path d="M93.3962 183.991L99 193.283L104.604 183.991H93.3962Z" fill="white" stroke="white" stroke-width="3" stroke-linejoin="round"/>
<path d="M76.741 181.26L80.415 191.462L87.7332 183.436L76.741 181.26Z" fill="white" stroke="white" stroke-width="3" stroke-linejoin="round"/>
<path d="M60.941 175.349L62.5441 186.068L71.2954 179.617L60.941 175.349Z" fill="white" stroke="white" stroke-width="3" stroke-linejoin="round"/>
<path d="M46.6035 166.485L46.0741 177.309L55.9222 172.68L46.6035 166.485Z" fill="white" stroke="white" stroke-width="3" stroke-linejoin="round"/>
<path d="M34.2797 155.009L31.638 165.522L42.2046 162.893L34.2797 155.009Z" fill="white" stroke="white" stroke-width="3" stroke-linejoin="round"/>
<path d="M24.4431 141.36L19.7908 151.159L30.6697 150.632L24.4431 141.36Z" fill="white" stroke="white" stroke-width="3" stroke-linejoin="round"/>
<path d="M17.4716 126.065L10.9873 134.772L21.7605 136.367L17.4716 126.065Z" fill="white" stroke="white" stroke-width="3" stroke-linejoin="round"/>
<path d="M13.6332 109.71L5.5663 116.991L15.8197 120.647L13.6332 109.71Z" fill="white" stroke="white" stroke-width="3" stroke-linejoin="round"/>
<path d="M13.0754 92.9245L3.73582 98.5L13.0754 104.075L13.0754 92.9245Z" fill="white" stroke="white" stroke-width="3" stroke-linejoin="round"/>
<path d="M15.8197 76.3533L5.56626 80.0088L13.6332 87.29L15.8197 76.3533Z" fill="white" stroke="white" stroke-width="3" stroke-linejoin="round"/>
<path d="M21.7605 60.6331L10.9873 62.2281L17.4716 70.9352L21.7605 60.6331Z" fill="white" stroke="white" stroke-width="3" stroke-linejoin="round"/>
<path d="M30.6697 46.3682L19.7908 45.8414L24.4431 55.6398L30.6697 46.3682Z" fill="white" stroke="white" stroke-width="3" stroke-linejoin="round"/>
<path d="M42.2046 34.1066L31.638 31.4783L34.2797 41.9915L42.2046 34.1066Z" fill="white" stroke="white" stroke-width="3" stroke-linejoin="round"/>
<path d="M55.9223 24.3196L46.0741 19.6908L46.6035 30.5148L55.9223 24.3196Z" fill="white" stroke="white" stroke-width="3" stroke-linejoin="round"/>
<path d="M71.2953 17.3834L62.544 10.9319L60.9409 21.6506L71.2953 17.3834Z" fill="white" stroke="white" stroke-width="3" stroke-linejoin="round"/>
<path d="M87.7329 13.5644L80.4148 5.53819L76.7407 15.7398L87.7329 13.5644Z" fill="white" stroke="white" stroke-width="3" stroke-linejoin="round"/>
<path d="M104.604 13.0095L99 3.71701L93.3962 13.0095L104.604 13.0095Z" fill="white" stroke="white" stroke-width="3" stroke-linejoin="round"/>
<path d="M121.259 15.7398L117.585 5.53821L110.267 13.5644L121.259 15.7398Z" fill="white" stroke="white" stroke-width="3" stroke-linejoin="round"/>
<path d="M137.059 21.6506L135.456 10.9319L126.705 17.3834L137.059 21.6506Z" fill="white" stroke="white" stroke-width="3" stroke-linejoin="round"/>
<path d="M151.396 30.5148L151.926 19.6908L142.078 24.3196L151.396 30.5148Z" fill="white" stroke="white" stroke-width="3" stroke-linejoin="round"/>
<path d="M163.72 41.9915L166.362 31.4783L155.795 34.1066L163.72 41.9915Z" fill="white" stroke="white" stroke-width="3" stroke-linejoin="round"/>
<path d="M173.557 55.6398L178.209 45.8414L167.33 46.3682L173.557 55.6398Z" fill="white" stroke="white" stroke-width="3" stroke-linejoin="round"/>
<path d="M180.528 70.9352L187.013 62.2281L176.24 60.6331L180.528 70.9352Z" fill="white" stroke="white" stroke-width="3" stroke-linejoin="round"/>
<path d="M184.367 87.29L192.434 80.0087L182.18 76.3533L184.367 87.29Z" fill="white" stroke="white" stroke-width="3" stroke-linejoin="round"/>
<path d="M85.9246 20.4434L99 33.4529L112.076 20.4434H85.9246Z" fill="white" stroke="white" stroke-width="6" stroke-linejoin="round"/>
<path d="M169.573 62.0065L161.178 78.3993L177.654 86.7519L169.573 62.0065Z" fill="white" stroke="white" stroke-width="6" stroke-linejoin="round"/>
<path d="M155.692 154.002L137.428 151.124L134.535 169.296L155.692 154.002Z" fill="white" stroke="white" stroke-width="6" stroke-linejoin="round"/>
<path d="M63.4648 169.296L60.5721 151.124L42.3083 154.002L63.4648 169.296Z" fill="white" stroke="white" stroke-width="6" stroke-linejoin="round"/>
<path d="M20.3463 86.7519L36.8224 78.3993L28.4274 62.0065L20.3463 86.7519Z" fill="white" stroke="white" stroke-width="6" stroke-linejoin="round"/>
</svg>
